<svg width="18" height="14" viewBox="0 0 18 14" fill="none" xmlns="http://www.w3.org/2000/svg">
<path d="M16.5 1.75001V0.999988C16.5 0.586551 16.1638 0.25 15.75 0.25H13.5C13.0862 0.25 12.75 0.586551 12.75 0.999988V1.74998H12.5303L12.2198 1.43944C11.9407 1.16002 11.554 0.999988 11.1592 0.999988H6.84081C6.44604 0.999988 6.05932 1.16002 5.78025 1.43944L5.46971 1.74998H5.24999V0.999988C5.24999 0.586551 4.91382 0.25 4.5 0.25H2.25C1.83618 0.25 1.50001 0.586551 1.50001 0.999988V1.74998C0.673102 1.75001 0 2.42273 0 3.24999V12.25C0 13.0773 0.673102 13.75 1.50001 13.75H16.5C17.3269 13.75 18 13.0773 18 12.25V3.24999C18 2.42273 17.3269 1.75001 16.5 1.75001ZM4.12499 5.49999H2.62501C2.41773 5.49999 2.25 5.33226 2.25 5.12498C2.25 4.91773 2.41773 4.75 2.62501 4.75H4.12502C4.3323 4.75 4.50004 4.91773 4.50004 5.12501C4.5 5.33229 4.33227 5.49999 4.12499 5.49999ZM15.375 5.49999H15V5.875C15 6.08228 14.8322 6.25001 14.625 6.25001C14.4177 6.25001 14.25 6.08228 14.25 5.875V5.49999H13.8749C13.6677 5.49999 13.4999 5.33226 13.4999 5.12498C13.4999 4.9177 13.6677 4.74996 13.8749 4.74996H14.25V4.37495C14.25 4.16767 14.4177 3.99994 14.625 3.99994C14.8322 3.99994 15 4.16767 15 4.37495V4.75H15.375C15.5823 4.75 15.75 4.91773 15.75 5.12501C15.75 5.33229 15.5823 5.49999 15.375 5.49999Z" fill="#5D6C7B"/>
</svg>
