<svg width="12" height="18" viewBox="0 0 12 18" fill="none" xmlns="http://www.w3.org/2000/svg">
<path d="M11.224 0.260732C11.1407 0.101188 10.9756 0 10.7955 0H3.72992C3.51625 0 3.32795 0.141421 3.26681 0.346092L0.742856 8.80412C0.699179 8.95043 0.72721 9.10792 0.81843 9.23032C0.90965 9.35277 1.05337 9.42405 1.20596 9.42405H5.16763L3.57164 17.4212C3.52519 17.6538 3.65434 17.8862 3.87653 17.9691C3.93193 17.9898 3.98908 18 4.04544 18C4.21495 18 4.37746 17.9106 4.46554 17.7559L10.6896 6.82597C10.7748 6.67634 10.774 6.49172 10.6875 6.34287C10.601 6.19402 10.4418 6.10147 10.2697 6.10147H7.4671L11.1919 0.760267C11.2949 0.612563 11.3073 0.420397 11.224 0.260732Z" fill="#5D6C7B"/>
</svg>
