<svg width="18" height="18" viewBox="0 0 18 18" fill="none" xmlns="http://www.w3.org/2000/svg">
<path d="M8.47243 4.56443V1.23608C6.43963 1.35277 4.53332 2.14269 3.01172 3.49878L5.36494 5.85199C6.25052 5.11477 7.32585 4.6692 8.47243 4.56443V4.56443Z" fill="#5D6C7B"/>
<path d="M4.61876 6.59768L2.26557 4.24451C0.908332 5.76568 0.117422 7.67213 0 9.70542H3.32849C3.43396 8.55859 3.88044 7.4832 4.61876 6.59768Z" fill="#5D6C7B"/>
<path d="M14.6692 9.70542H17.9977C17.8802 7.67213 17.0894 5.76568 15.7321 4.24451L13.3789 6.59768C14.1172 7.48316 14.5637 8.55859 14.6692 9.70542V9.70542Z" fill="#5D6C7B"/>
<path d="M14.6696 10.76C14.4951 12.6759 13.4434 13.8449 13.0258 14.2625C12.8195 14.4687 12.8195 14.8032 13.0258 15.0095L14.6259 16.6097C14.729 16.7128 14.8642 16.7644 14.9994 16.7644C15.1346 16.7644 15.2697 16.7128 15.3729 16.6097C16.9523 15.0305 17.8732 12.9698 17.9992 10.76H14.6696Z" fill="#5D6C7B"/>
<path d="M3.27189 13.7858C3.41919 13.5543 3.64215 13.2058 3.90962 12.7933C3.63544 12.2499 3.40358 11.5723 3.32965 10.76H0C0.126035 12.9698 1.04695 15.0305 2.62628 16.6097C2.72943 16.7128 2.8646 16.7644 2.99978 16.7644C3.13495 16.7644 3.27016 16.7128 3.37331 16.6097L3.92119 16.0618C3.76249 15.9854 3.61607 15.8821 3.48785 15.7539C2.95952 15.2255 2.87068 14.4162 3.27189 13.7858V13.7858Z" fill="#5D6C7B"/>
<path d="M9.52734 1.23608V4.56443C10.6739 4.6692 11.7493 5.11473 12.6348 5.85199L14.9881 3.49878C13.4665 2.14266 11.5601 1.35277 9.52734 1.23608V1.23608Z" fill="#5D6C7B"/>
<path d="M7.82725 9.06998C7.01106 9.88617 4.44992 13.8973 4.16059 14.352C4.02787 14.5605 4.05783 14.8332 4.23259 15.008C4.40735 15.1828 4.68006 15.2127 4.88861 15.08C5.34328 14.7907 9.35448 12.2296 10.1707 11.4134C10.8167 10.7673 10.8167 9.71608 10.1707 9.07002C9.5246 8.42395 8.47332 8.42392 7.82725 9.06998V9.06998Z" fill="#5D6C7B"/>
</svg>
